<svg width="180" height="42" viewBox="0 0 180 42" fill="none" xmlns="http://www.w3.org/2000/svg">
<g clip-path="url(#clip0_1050_43012)">
<path d="M54.7629 21.5976C55.321 21.3341 55.7853 21.1882 57.3658 21.0142C59.4434 20.7742 60.8409 19.7815 60.8409 17.6689C60.8409 15.674 59.7341 14.3849 56.8077 14.3849C56.0761 14.3849 55.4382 14.4461 54.7629 14.5637V21.5976ZM50.467 11.3643C52.3664 11.0444 55.2319 10.9268 56.9249 10.9268C62.4214 10.9268 65.2587 13.0957 65.2587 17.6689C65.2587 20.6566 63.3875 22.595 61.1645 23.329C62.8294 25.1451 65.0805 28.6926 66.4546 31.6567H61.6616C60.522 29.1913 58.3272 25.7332 57.1594 24.3217L56.3152 24.5005C55.0818 24.7687 54.7629 25.1169 54.7629 27.7234V31.652H50.467V11.3643Z" fill="#000033"/>
<path d="M76.8615 24.3217C76.6551 24.5287 76.3925 24.6746 75.9282 24.7922L74.2305 25.2862C72.65 25.7614 72.303 26.4013 72.303 27.2811C72.303 28.2786 73.0346 28.9231 74.0288 28.9231C75.7828 28.9231 76.8661 27.8928 76.8661 26.2554V24.317L76.8615 24.3217ZM80.9791 31.6567H77.5321C77.2976 31.1015 77.2413 30.424 77.2413 29.9865C76.1298 31.365 74.5259 31.9814 72.711 31.9814C69.9065 31.9814 68.2087 30.0711 68.2087 27.6716C68.2087 25.2721 69.4375 23.743 72.9736 22.8632L75.2857 22.2751C76.4816 21.9834 76.8661 21.5693 76.8661 20.8683C76.8661 20.1343 76.1908 19.6027 74.7604 19.6027C72.8329 19.6027 70.699 20.1296 69.414 20.6566V17.3161C70.7881 16.6997 72.7766 16.3186 75.084 16.3186C78.6483 16.3186 80.9885 17.6689 80.9885 21.8328V31.6567H80.9791Z" fill="#000033"/>
<path d="M84.9843 16.6998H89.1067V31.6521H84.9843V16.6998ZM87.0338 9.63293C88.4642 9.63293 89.6319 10.8045 89.6319 12.2442C89.6319 13.6839 88.4642 14.8507 87.0338 14.8507C85.6034 14.8507 84.4309 13.6745 84.4309 12.2442C84.4309 10.8139 85.6034 9.63293 87.0338 9.63293Z" fill="#000033"/>
<path d="M104.273 19.8379H97.8437V31.6567H93.7213V19.8379H91.8267V16.6997H93.7213V14.8507C93.7213 12.0654 95.1517 10.0422 98.6926 10.0422C100.151 10.0422 101.408 10.3339 101.76 10.4516V13.7074C101.15 13.5568 100.475 13.3545 99.6258 13.3545C98.3127 13.3545 97.8437 14.1449 97.8437 15.2318V16.6997H104.273V14.8507C104.273 12.0654 105.709 10.0422 109.245 10.0422C110.703 10.0422 111.96 10.3339 112.312 10.4516V13.7074C111.697 13.5568 111.027 13.3545 110.178 13.3545C108.86 13.3545 108.391 14.1449 108.391 15.2318V16.6997H111.547V19.8379H108.391V31.6567H104.269V19.8379H104.273Z" fill="#000033"/>
<path d="M116.725 23.6489V23.9406C116.927 23.7383 117.278 23.5642 117.949 23.3854L119.759 22.9149C121.133 22.5621 121.748 22.0022 121.748 21.1223C121.748 20.1578 121.072 19.5697 119.905 19.5697C117.883 19.5697 116.72 21.1835 116.72 23.6442M118.352 25.992C117.593 26.166 117.274 26.5189 117.274 27.1353C117.274 27.7516 117.916 28.7773 119.553 28.7773C121.335 28.7773 123.933 28.1609 125.776 27.3658V30.6828C124.374 31.4732 122.212 32.0331 119.553 32.0331C114.938 32.0331 112.598 28.9278 112.598 24.1759C112.598 19.4239 115.576 16.3186 119.933 16.3186C123.999 16.3186 125.87 18.3417 125.87 20.8683C125.87 23.5642 124.29 24.6181 120.988 25.3803L118.352 25.9967V25.992Z" fill="#000033"/>
<path d="M129.176 16.6998H133.299V31.6521H129.176V16.6998ZM131.221 9.63293C132.652 9.63293 133.824 10.8045 133.824 12.2442C133.824 13.6839 132.652 14.8507 131.221 14.8507C129.791 14.8507 128.623 13.6745 128.623 12.2442C128.623 10.8139 129.791 9.63293 131.221 9.63293Z" fill="#000033"/>
<path d="M147.031 17.2597V20.5719C145.596 19.9321 143.879 19.5463 142.589 19.5463C141.483 19.5463 140.779 19.9885 140.779 20.746C140.779 21.5035 141.243 21.8329 142.679 22.3034L144.053 22.7456C146.595 23.569 147.767 24.9428 147.767 27.1118C147.767 30.25 145.539 32.0379 141.422 32.0379C139.607 32.0379 138.143 31.6568 136.54 30.9275V27.46C138.059 28.2833 139.902 28.8103 141.45 28.8103C142.852 28.8103 143.556 28.3398 143.556 27.46C143.556 26.726 143.054 26.3449 141.741 25.9073L140.366 25.4368C138.054 24.6464 136.563 23.4137 136.563 20.8636C136.563 18.3136 138.322 16.314 142.322 16.314C144.193 16.314 145.858 16.7233 147.026 17.255" fill="#000033"/>
<path d="M154.22 23.6489V23.9406C154.426 23.7383 154.778 23.5642 155.449 23.3854L157.254 22.9149C158.628 22.5621 159.243 22.0022 159.243 21.1223C159.243 20.1578 158.572 19.5697 157.404 19.5697C155.383 19.5697 154.215 21.1835 154.215 23.6442M155.852 25.992C155.092 26.166 154.773 26.5189 154.773 27.1353C154.773 27.7516 155.416 28.7773 157.053 28.7773C158.835 28.7773 161.438 28.1609 163.281 27.3658V30.6828C161.878 31.4732 159.716 32.0331 157.053 32.0331C152.438 32.0331 150.098 28.9278 150.098 24.1759C150.098 19.4239 153.08 16.3186 157.433 16.3186C161.494 16.3186 163.365 18.3417 163.365 20.8683C163.365 23.5642 161.789 24.6181 158.488 25.3803L155.852 25.9967V25.992Z" fill="#000033"/>
<path d="M179.442 18.9581C179.85 19.9556 180 21.2777 180 23.0044V31.6521H175.878V23.9124C175.878 22.181 175.793 21.5647 175.587 20.9813C175.301 20.1579 174.686 19.7486 173.72 19.7486C171.849 19.7486 170.766 20.8636 170.766 24.0865V31.6521H166.643V16.6998H170.095C170.33 17.2832 170.386 18.3089 170.386 18.7511C171.066 17.429 172.721 16.314 174.972 16.314C177.224 16.314 178.715 17.1373 179.447 18.9534" fill="#000033"/>
<path d="M30.0899 41.5512C30.2118 41.5512 30.3291 41.4854 30.39 41.3677C30.451 41.2501 30.4369 41.1137 30.3619 41.0149L20.9541 27.9257C20.9541 27.9257 20.4851 27.187 19.9317 26.7871C19.369 26.3778 18.7218 26.3025 18.506 26.2602C8.80748 24.2182 5.22915 20.7366 3.02962 16.9867C1.7024 14.7284 0.937964 11.8725 0.501811 9.13418C0.450223 8.80954 0 8.73426 0 9.29885C0 9.86344 0 29.4878 0 29.4878C0 32.7624 0.755061 35.9618 3.25005 38.4601C5.44957 40.7467 9.01383 41.5512 12.278 41.5512H30.0899Z" fill="#B5C72E"/>
<path d="M16.4988 0.448853C16.4753 0.448853 4.29115 0.453557 3.66741 0.453557C3.04366 0.453557 3.21249 0.839363 3.55485 0.933461C6.86117 1.81329 13.6098 4.18458 16.5363 8.17437C21.9155 15.5047 20.2319 24.2135 20.0818 25.1357C20.1193 25.1263 20.1615 25.1169 20.199 25.1074C21.1276 24.8816 22.0234 24.5758 22.8675 24.1994C27.5058 22.1339 30.6902 17.8995 30.6902 12.9969C30.6902 6.06655 24.3354 0.448853 16.4988 0.448853Z" fill="#000033"/>
</g>
<defs>
<clipPath id="clip0_1050_43012">
<rect width="180" height="41.1024" fill="white" transform="translate(0 0.448853)"/>
</clipPath>
</defs>
</svg>
