<?xml version="1.0" encoding="utf-8"?>
<!-- Generator: Adobe Illustrator 22.0.1, SVG Export Plug-In . SVG Version: 6.00 Build 0)  -->
<svg version="1.1" id="Layer_1" xmlns="http://www.w3.org/2000/svg" xmlns:xlink="http://www.w3.org/1999/xlink" x="0px" y="0px"
	 viewBox="0 0 197.9 45.4" style="enable-background:new 0 0 197.9 45.4;" xml:space="preserve">
<style type="text/css">
	.st0{fill:url(#SVGID_1_);}
	.st1{fill:url(#SVGID_2_);}
	.st2{fill:url(#SVGID_3_);}
	.st3{fill:url(#SVGID_4_);}
	.st4{fill:url(#SVGID_5_);}
	.st5{fill:url(#SVGID_6_);}
	.st6{fill:#FFFFFF;}
</style>
<g id="Embleme_x5F_Q">
	<g>
		<g>
			
				<linearGradient id="SVGID_1_" gradientUnits="userSpaceOnUse" x1="22.7" y1="48.4778" x2="22.7" y2="0.6016" gradientTransform="matrix(1 0 0 -1 0 47.4)">
				<stop  offset="0" style="stop-color:#008053"/>
				<stop  offset="0.6" style="stop-color:#7FCBAE"/>
				<stop  offset="1" style="stop-color:#00A76D"/>
			</linearGradient>
			<rect class="st0" width="45.4" height="45.4"/>
			
				<linearGradient id="SVGID_2_" gradientUnits="userSpaceOnUse" x1="22.7" y1="58.6284" x2="22.7" y2="4.8287" gradientTransform="matrix(1 0 0 -1 0 47.4)">
				<stop  offset="0" style="stop-color:#00A76D"/>
				<stop  offset="0.3" style="stop-color:#7FCBAE"/>
				<stop  offset="0.55" style="stop-color:#00A76D"/>
				<stop  offset="0.8352" style="stop-color:#008053"/>
				<stop  offset="0.8691" style="stop-color:#008558"/>
				<stop  offset="0.9244" style="stop-color:#009264"/>
				<stop  offset="0.9938" style="stop-color:#00A97A"/>
				<stop  offset="1" style="stop-color:#00AD7D"/>
			</linearGradient>
			<path class="st1" d="M44,23c0,9.5,0.4,19.2,0.4,19.2c0,1.1-0.7,1.8-1.6,1.8H3.6c-0.9,0-1.5-0.8-1.6-1.8c0,0-1.1-8.3-1.1-20.9
				S2,2.7,2,2.7c0.1-1,0.7-1.8,1.6-1.8h39.3c0.9,0,1.6,0.8,1.6,1.8C44.4,2.6,44,13.5,44,23z"/>
			<g>
				<g>
					
						<linearGradient id="SVGID_3_" gradientUnits="userSpaceOnUse" x1="31.25" y1="7.799" x2="31.25" y2="42.6145" gradientTransform="matrix(1 0 0 -1 0 47.4)">
						<stop  offset="0" style="stop-color:#00B387"/>
						<stop  offset="1" style="stop-color:#00A76D"/>
					</linearGradient>
					<path class="st2" d="M35.3,12.3c-2.8,1.6-3.7,1.8-6.7,3.6l0.1-0.3c1.6-1.7,2.3-2.5,3.3-4c-2.8,0.2-6.9,0.5-9.8,1.1l0,0l0,0l0,0
						l0.2-0.3C25,11.1,30,9.8,32.5,9.5c-0.6-0.9-5.6-3.6-6.8-4.1l0,0l0,0l0,0l0.1-0.3c3.8,0.4,8.8,2.2,10.9,3.5
						c0.9-0.3,1.9-0.3,3.6-0.5c0,0-0.3,1-2.1,2.3l0,0l0,0l0,0c0.5,1.2-0.6,8.1-1.6,9.9l0,0l0,0l0,0C36.6,17.5,36.3,13.9,35.3,12.3z"
						/>
					
						<linearGradient id="SVGID_4_" gradientUnits="userSpaceOnUse" x1="9.65" y1="7.7975" x2="9.65" y2="42.6236" gradientTransform="matrix(1 0 0 -1 0 47.4)">
						<stop  offset="0" style="stop-color:#00B387"/>
						<stop  offset="1" style="stop-color:#00A76D"/>
					</linearGradient>
					<path class="st3" d="M14.8,36.8l0.1-0.3c-1.5-0.6-3-1-4.2-2.2l0,0l0,0l0,0l0,0l0,0l0,0l0,0l0,0l0,0l0,0l0,0l0,0l0,0l0,0l0,0
						l0,0l0,0l0,0l0,0l0,0l0,0l0,0l0,0l0,0l0,0l0,0l0,0l0,0l0,0l0,0l0,0c0.4-1.1,0.8-1.9,1.5-2.9l0,0l0,0l0,0l0,0l0,0l0,0l0,0l0,0
						l0,0l0,0l0,0l0,0l0,0l0,0l0,0l0,0l0,0l0,0l0,0l0,0l0,0l0,0l0,0l0,0l0,0l0,0l0,0l0,0l0,0l0,0l0,0l0.1-0.3
						C11,31.3,9.9,31.8,8.8,32l0,0l0,0l0,0l0,0l0,0l0,0l0,0l0,0l0,0l0,0l0,0l0,0l0,0l0,0l0,0l0,0l0,0l0,0l0,0l0,0l0,0l0,0l0,0l0,0
						l0,0l0,0l0,0l0,0l0,0l0,0l0,0c-0.9-1.5-1.2-3.6-1.7-5.6L7,26.7l0,0l0,0l0,0l0,0l0,0l0,0l0,0l0,0l0,0l0,0l0,0l0,0l0,0l0,0l0,0
						c-0.2,2.3-0.3,3.9,0,5.7l0,0l0,0l0,0l0,0l0,0l0,0l0,0l0,0l0,0l0,0l0,0l0,0l0,0l0,0l0,0l0,0l0,0l0,0l0,0l0,0l0,0l0,0l0,0l0,0
						l0,0l0,0l0,0l0,0l0,0l0,0l0,0c-0.9,0.3-1.7,0.3-2.5,0.6l-0.1,0.3l0,0l0,0l0,0l0,0l0,0l0,0l0,0l0,0l0,0l0,0l0,0l0,0l0,0l0,0l0,0
						l0,0l0,0l0,0l0,0l0,0l0,0l0,0l0,0l0,0l0,0l0,0l0,0l0,0l0,0l0,0l0,0c1.2,0.7,2.1,1.3,3.5,1.9l0,0l0,0l0,0l0,0l0,0l0,0l0,0l0,0
						l0,0l0,0l0,0l0,0l0,0l0,0l0,0l0,0l0,0l0,0l0,0l0,0l0,0l0,0l0,0l0,0l0,0l0,0l0,0l0,0l0,0l0,0l0,0c0.7,1.5,1.5,2.6,2.7,3.8l0,0
						l0,0l0,0l0,0l0,0l0,0l0,0l0,0l0,0l0,0l0,0l0,0l0,0l0,0l0,0l0,0l0,0l0,0l0,0l0,0l0,0l0,0l0,0l0,0l0,0l0,0l0,0l0,0l0,0l0,0l0,0
						l0.1-0.3c-0.2-0.9-0.5-1.6-0.4-2.6l0,0l0,0l0,0l0,0l0,0l0,0l0,0l0,0l0,0l0,0l0,0l0,0l0,0l0,0l0,0l0,0l0,0l0,0l0,0l0,0l0,0l0,0
						l0,0l0,0l0,0l0,0l0,0l0,0l0,0l0,0l0,0C11.8,36.5,13.1,36.8,14.8,36.8z"/>
					
						<linearGradient id="SVGID_5_" gradientUnits="userSpaceOnUse" x1="16.45" y1="7.8057" x2="16.45" y2="42.609" gradientTransform="matrix(1 0 0 -1 0 47.4)">
						<stop  offset="0" style="stop-color:#00B387"/>
						<stop  offset="1" style="stop-color:#00A76D"/>
					</linearGradient>
					<path class="st4" d="M18.9,14c0,0-0.6,1.1-1.1,2.5h-0.1l0,0l0,0c3.5,0.5,6.8,1.9,7.6,2.4l-0.1,0.3l0,0l0,0l0,0l0,0l0,0l0,0l0,0
						c-3.6-0.6-5.5-0.6-6.9-0.4l0,0l0,0l0,0c-1.3,0.1-1.6,0.3-1.6,0.3l0,0l0,0l0,0l0,0l0,0l0,0l0,0c-0.8,1.7-1.2,4.5-1.4,5.5
						l-0.1,0.3l0,0l0,0l0,0l0,0l0,0l0,0l0,0c-0.7-1.6-1.6-4.8-1.6-4.8l0,0l0,0l0,0l0,0l0,0l0,0l0,0c-1.8,1-6,4.9-6,4.9l0,0l0,0l0,0
						l0,0l0,0l0,0l0,0c2.3-4.6,4.7-6.7,4.7-6.7l0,0l0,0l0,0l0,0l0,0l0,0l0,0c-0.8-0.8-2.9-1.2-4.5-1.3l0,0l0,0l0,0l0.1-0.3
						c1-0.3,3-0.4,4.3-0.5l0,0l0,0l0,0l0,0l0,0l0,0l0,0c1.6,0,2.5,0,2.5,0l0,0l0,0l0,0C16.1,15.1,18.2,14.1,18.9,14z"/>
					
						<linearGradient id="SVGID_6_" gradientUnits="userSpaceOnUse" x1="22.2" y1="7.8001" x2="22.2" y2="42.6152" gradientTransform="matrix(1 0 0 -1 0 47.4)">
						<stop  offset="0" style="stop-color:#00B387"/>
						<stop  offset="1" style="stop-color:#00A76D"/>
					</linearGradient>
					<path class="st5" d="M23.3,33.9c-0.7,1-1.4,1.8-2.2,2.7l0,0l0,0l0,0l0,0l0,0l0,0l0,0l0,0l0,0l0,0l0,0l0,0l0,0l0,0l0,0l0,0l0,0
						l0,0l0,0l0,0l0,0l0,0l0,0l0,0l0,0l0,0l0,0l0,0l0,0l0,0l0,0c-1.2,0.3-2.6,0.2-3.7,0.2l-0.1,0.3l0,0l0,0l0,0l0,0l0,0l0,0l0,0l0,0
						l0,0l0,0l0,0l0,0l0,0l0,0l0,0l0,0l0,0l0,0l0,0l0,0l0,0l0,0l0,0l0,0l0,0l0,0l0,0l0,0l0,0l0,0l0,0c0.8,0.4,1.6,0.7,2.5,0.9l0,0
						l0,0l0,0l0,0l0,0l0,0l0,0l0,0l0,0l0,0l0,0l0,0l0,0l0,0l0,0l0,0l0,0l0,0l0,0l0,0l0,0l0,0l0,0l0,0l0,0l0,0l0,0l0,0l0,0l0,0l0,0
						c-0.7,0.6-1.6,1.1-2.3,1.6l-0.1,0.3l0,0l0,0l0,0l0,0l0,0l0,0l0,0l0,0l0,0l0,0l0,0l0,0l0,0l0,0l0,0l0,0l0,0l0,0l0,0l0,0l0,0l0,0
						l0,0l0,0l0,0l0,0l0,0l0,0l0,0l0,0l0,0c1.4-0.3,3.3-0.9,4.7-1.8l0,0l0,0l0,0l0,0l0,0l0,0l0,0l0,0l0,0l0,0l0,0l0,0l0,0l0,0l0,0
						l0,0l0,0l0,0l0,0l0,0l0,0l0,0l0,0l0,0l0,0l0,0l0,0l0,0l0,0l0,0l0,0c0.7,0,1.4,0,1.9-0.1l0,0l0,0l0,0l0,0l0,0l0,0l0,0l0,0l0,0
						l0,0l0,0l0,0l0,0l0,0l0,0l0,0l0,0l0,0l0,0l0,0l0,0l0,0l0,0l0,0l0,0l0,0l0,0l0,0l0,0l0,0l0,0l0.1-0.3c-0.1-0.3-0.4-0.5-0.5-1
						l0,0l0,0l0,0l0,0l0,0l0,0l0,0l0,0l0,0l0,0l0,0l0,0l0,0l0,0l0,0l0,0l0,0l0,0l0,0l0,0l0,0l0,0l0,0l0,0l0,0l0,0l0,0l0,0l0,0l0,0
						l0,0c1.3-1,2.2-1.9,3.3-3l0,0l0,0l0,0l0,0l0,0l0,0l0,0l0,0l0,0l0,0l0,0l0,0l0,0l0,0l0,0l0,0l0,0l0,0l0,0l0,0l0,0l0,0l0,0l0,0
						l0,0l0,0l0,0l0,0l0,0l0,0l0,0l0.2-0.3c-1.1,0.7-2.4,1.8-3.6,2.4l0,0l0,0l0,0l0,0l0,0l0,0l0,0l0,0l0,0l0,0l0,0l0,0l0,0l0,0l0,0
						l0,0l0,0l0,0l0,0l0,0l0,0l0,0l0,0l0,0l0,0l0,0l0,0l0,0l0,0l0,0l0,0C23.4,35.1,23.4,34.6,23.3,33.9z"/>
				</g>
				<g>
					<path class="st6" d="M35.4,12c-2.8,1.6-3.7,1.8-6.7,3.6c1.8-1.9,2.4-2.7,3.5-4.4c-2.8,0.1-6.9,0.5-9.8,1.1l0,0l0,0l0,0
						c2.5-1.4,7.6-2.9,10.2-3.2C32,8.3,27,5.6,25.8,5l0,0l0,0l0,0c3.9,0.3,8.8,1.8,11.1,3.2c0.9-0.3,1.9-0.3,3.6-0.5l0,0l0,0l0,0
						C40.1,8.4,40,8.9,38.4,10l0,0l0,0l0,0c0.5,1.2-0.6,8.1-1.6,9.9l0,0l0,0l0,0C36.7,17.1,36.5,13.5,35.4,12z"/>
					<path class="st6" d="M14.9,36.5c-1.6-0.6-2.8-1.3-4-2.5l0,0l0,0l0,0l0,0l0,0l0,0l0,0l0,0l0,0l0,0l0,0l0,0l0,0l0,0l0,0l0,0l0,0
						l0,0l0,0l0,0l0,0l0,0l0,0l0,0l0,0l0,0l0,0l0,0l0,0l0,0l0,0c0.4-1.1,0.8-1.9,1.5-2.9l0,0l0,0l0,0l0,0l0,0l0,0l0,0l0,0l0,0l0,0
						l0,0l0,0l0,0l0,0l0,0l0,0l0,0l0,0l0,0l0,0l0,0l0,0l0,0l0,0l0,0l0,0l0,0l0,0l0,0l0,0l0,0c-1.3,0.2-2.3,0.3-3.4,0.6l0,0l0,0l0,0
						l0,0l0,0l0,0l0,0l0,0l0,0l0,0l0,0l0,0l0,0l0,0l0,0l0,0l0,0l0,0l0,0l0,0l0,0l0,0l0,0l0,0l0,0l0,0l0,0l0,0l0,0l0,0l0,0
						c-0.9-1.6-1.3-3.2-1.8-5.3l0,0l0,0l0,0l0,0l0,0l0,0l0,0l0,0l0,0l0,0l0,0l0,0l0,0l0,0l0,0c-0.3,2.3-0.3,3.9,0,5.7l0,0l0,0l0,0
						l0,0l0,0l0,0l0,0l0,0l0,0l0,0l0,0l0,0l0,0l0,0l0,0l0,0l0,0l0,0l0,0l0,0l0,0l0,0l0,0l0,0l0,0l0,0l0,0l0,0l0,0l0,0l0,0
						c-1,0.3-1.8,0.5-2.6,0.9l0,0l0,0l0,0l0,0l0,0l0,0l0,0l0,0l0,0l0,0l0,0l0,0l0,0l0,0l0,0l0,0l0,0l0,0l0,0l0,0l0,0l0,0l0,0l0,0
						l0,0l0,0l0,0l0,0l0,0l0,0l0,0c1.2,0.7,2.2,1.3,3.5,1.9l0,0l0,0l0,0l0,0l0,0l0,0l0,0l0,0l0,0l0,0l0,0l0,0l0,0l0,0l0,0l0,0l0,0
						l0,0l0,0l0,0l0,0l0,0l0,0l0,0l0,0l0,0l0,0l0,0l0,0l0,0l0,0c0.7,1.5,1.5,2.6,2.7,3.8l0,0l0,0l0,0l0,0l0,0l0,0l0,0l0,0l0,0l0,0
						l0,0l0,0l0,0l0,0l0,0l0,0l0,0l0,0l0,0l0,0l0,0l0,0l0,0l0,0l0,0l0,0l0,0l0,0l0,0l0,0l0,0c-0.3-1-0.4-1.8-0.2-2.9l0,0l0,0l0,0
						l0,0l0,0l0,0l0,0l0,0l0,0l0,0l0,0l0,0l0,0l0,0l0,0l0,0l0,0l0,0l0,0l0,0l0,0l0,0l0,0l0,0l0,0l0,0l0,0l0,0l0,0l0,0l0,0
						C11.9,36.2,13.2,36.4,14.9,36.5z"/>
					<path class="st6" d="M19.1,13.8L19.1,13.8L19.1,13.8L19.1,13.8L19.1,13.8c-0.5,0.7-1.1,1.9-1.2,2.4l0,0l0,0l0,0
						c4.1,0.6,7.5,2.7,7.5,2.7l0,0l0,0l0,0l0,0l0,0l0,0l0,0c-3.6-0.6-5.5-0.6-6.9-0.4l0,0l0,0l0,0c-1.3,0.1-1.6,0.3-1.6,0.3l0,0l0,0
						l0,0l0,0l0,0l0,0l0,0c-1,2.1-1.6,5.8-1.6,5.8l0,0l0,0l0,0l0,0l0,0l0,0l0,0c-0.7-1.6-1.6-4.8-1.6-4.8l0,0l0,0l0,0l0,0l0,0l0,0
						l0,0c-1.8,1-6,4.9-6,4.9l0,0l0,0l0,0l0,0l0,0l0,0l0,0c2.3-4.6,4.7-6.7,4.7-6.7l0,0l0,0l0,0l0,0l0,0l0,0l0,0
						c-0.8-0.8-2.9-1.2-4.5-1.3l0,0l0,0l0,0c0.8-0.3,2.9-0.7,4.5-0.8l0,0l0,0l0,0l0,0l0,0l0,0l0,0c1.6,0,2.5,0,2.5,0l0,0l0,0l0,0
						C16.2,14.8,18.4,13.9,19.1,13.8z"/>
					<path class="st6" d="M23.5,33.6c-0.7,1-1.4,1.8-2.2,2.7l0,0l0,0l0,0l0,0l0,0l0,0l0,0l0,0l0,0l0,0l0,0l0,0l0,0l0,0l0,0l0,0l0,0
						l0,0l0,0l0,0l0,0l0,0l0,0l0,0l0,0l0,0l0,0l0,0l0,0l0,0l0,0c-1.4,0.4-2.5,0.5-3.9,0.5l0,0l0,0l0,0l0,0l0,0l0,0l0,0l0,0l0,0l0,0
						l0,0l0,0l0,0l0,0l0,0l0,0l0,0l0,0l0,0l0,0l0,0l0,0l0,0l0,0l0,0l0,0l0,0l0,0l0,0l0,0l0,0c0.8,0.4,1.6,0.7,2.5,0.9l0,0l0,0l0,0
						l0,0l0,0l0,0l0,0l0,0l0,0l0,0l0,0l0,0l0,0l0,0l0,0l0,0l0,0l0,0l0,0l0,0l0,0l0,0l0,0l0,0l0,0l0,0l0,0l0,0l0,0l0,0l0,0
						c-0.9,0.8-1.6,1.3-2.5,1.9l0,0l0,0l0,0l0,0l0,0l0,0l0,0l0,0l0,0l0,0l0,0l0,0l0,0l0,0l0,0l0,0l0,0l0,0l0,0l0,0l0,0l0,0l0,0l0,0
						l0,0l0,0l0,0l0,0l0,0l0,0l0,0c1.4-0.3,3.3-0.9,4.7-1.8l0,0l0,0l0,0l0,0l0,0l0,0l0,0l0,0l0,0l0,0l0,0l0,0l0,0l0,0l0,0l0,0l0,0
						l0,0l0,0l0,0l0,0l0,0l0,0l0,0l0,0l0,0l0,0l0,0l0,0l0,0l0,0c0.7,0,1.4,0,1.9-0.1l0,0l0,0l0,0l0,0l0,0l0,0l0,0l0,0l0,0l0,0l0,0
						l0,0l0,0l0,0l0,0l0,0l0,0l0,0l0,0l0,0l0,0l0,0l0,0l0,0l0,0l0,0l0,0l0,0l0,0l0,0l0,0c-0.1-0.4-0.2-0.7-0.3-1.3l0,0l0,0l0,0l0,0
						l0,0l0,0l0,0l0,0l0,0l0,0l0,0l0,0l0,0l0,0l0,0l0,0l0,0l0,0l0,0l0,0l0,0l0,0l0,0l0,0l0,0l0,0l0,0l0,0l0,0l0,0l0,0
						c1.3-1,2.3-1.9,3.3-3l0,0l0,0l0,0l0,0l0,0l0,0l0,0l0,0l0,0l0,0l0,0l0,0l0,0l0,0l0,0l0,0l0,0l0,0l0,0l0,0l0,0l0,0l0,0l0,0l0,0
						l0,0l0,0l0,0l0,0l0,0l0,0c-1.2,0.8-2.2,1.4-3.5,2l0,0l0,0l0,0l0,0l0,0l0,0l0,0l0,0l0,0l0,0l0,0l0,0l0,0l0,0l0,0l0,0l0,0l0,0
						l0,0l0,0l0,0l0,0l0,0l0,0l0,0l0,0l0,0l0,0l0,0l0,0l0,0C23.6,34.8,23.5,34.3,23.5,33.6z"/>
				</g>
			</g>
		</g>
	</g>
</g>
<g id="immobilier">
	<g>
		<g>
			<g>
				<path d="M64.7,5c2.8,0,5.7,1,5.7,3.6c0,1.5-1.3,2.9-3.3,3.4c2.7,0.8,4.1,2.2,4.1,4.2c0,3.1-3.7,4.2-7.2,4.2h-7.3
					c0.2-2,0.2-4.9,0.2-8.1c0-2.1,0-5.3-0.2-7.3H64.7z M62.3,6.7c-0.5,0-1.1,0-1.4,0.1c-0.1,2-0.1,3.1-0.1,5.5c0,2.8,0,4,0.1,6.2
					c0.5,0,1.3,0,1.8,0c3,0,4.4-0.9,4.4-2.6c0-2-2.4-2.8-4.3-2.8h-0.9l0.9-2.2h0.5c1.3,0,3-0.6,3-2.1C66.4,7.3,65.3,6.7,62.3,6.7z"
					/>
				<path d="M88.3,12.9c-0.1,1.5-0.2,4.7-0.2,6.5c-1.5,0.8-3.5,1.2-5.9,1.2c-5.6,0-9.1-3.5-9.1-8c0-4.7,3.7-8.1,9.8-8.1
					c1.4,0,2.8,0.2,4.2,0.5l-1,2.6c-0.8-0.5-1.9-0.9-3.3-0.9c-4,0-5.4,3.2-5.4,5.9c0,4.5,2.6,5.9,5.4,5.9c0.5,0,1-0.1,1.4-0.2
					c0-1.8-0.1-4.2-0.2-5.5h4.3V12.9z"/>
				<path d="M104.2,20.4H92.1c0.2-2.1,0.2-6.7,0.2-8.1c0-1.5-0.1-5.6-0.2-7.4h4.2c-0.1,1.8-0.2,5.8-0.2,7.4c0,1,0,3.9,0.1,6.1h2.3
					c2.3,0,4.1-0.1,5.7-0.3V20.4z"/>
			</g>
		</g>
		<g>
			<g>
				<path d="M56.8,26.8c0.1,1.4,0.2,5.1,0.2,6.4c0,1.2,0,5.3-0.2,7v0.1h6.4c3.1,0,6.4-1,6.4-3.8c0-1.7-1.3-3-3.6-3.7
					c1.7-0.5,2.9-1.7,2.9-3c0-2.3-2.6-3.1-5-3.2h-7L56.8,26.8z M61.7,28.2c2.7,0,3.6,0.6,3.6,2c0,0.4-0.1,0.7-0.4,1
					c-0.5,0.6-1.5,0.9-2.8,0.9H62L61.3,34H62c1.5,0,2.7,0.4,3.4,1.2c0.3,0.4,0.5,0.8,0.5,1.2c0,1.5-1.3,2.3-4,2.3
					c-0.4,0-1.2,0-1.6,0c-0.1-2-0.1-4.7-0.1-5.5c0-1,0-3.1,0.1-4.9C60.8,28.2,61.3,28.2,61.7,28.2z"/>
				<path d="M84.2,26.7h-3.1l0.1,3.4c0.1,1.7,0.1,3.5,0.2,5.2l0,0l0,0c-0.2-0.5-0.4-0.8-1.3-2.2c0,0-3.2-5-4.4-6.4l0,0h-3.6v0.1
					c0.1,1.4,0.2,5.1,0.2,6.4c0,1.2,0,5.3-0.2,7v0.1h3.2v-0.1c-0.2-3.4-0.2-6.7-0.2-10l0,0c0.1,0.4,0.3,0.7,0.8,1.5
					c0.1,0.1,5.5,8.1,5.8,8.6v0.1h2.6v-0.1c-0.2-1.8-0.2-5.8-0.2-7c0-1.3,0.1-4.9,0.2-6.4L84.2,26.7L84.2,26.7L84.2,26.7z"/>
				<path d="M88,26.8c0.1,1.4,0.2,5.1,0.2,6.4c0,1.2,0,5.3-0.2,7v0.1h3.8v-0.1c-0.1-1.3-0.2-3.7-0.2-5.5c0.2,0,0.7,0,0.7,0h0.5
					c5,0,7.5-1.3,7.5-4.1c0-3.2-3.4-3.9-6.3-4h-6V26.8z M92.6,28.3c1.8,0,3,0.3,3.6,1.1c0.3,0.3,0.4,0.8,0.4,1.2
					c0,2-2.2,2.4-4.1,2.4h-0.8c0,0-0.2,0-0.3,0c0-0.5,0-1,0-1.7c0-0.9,0-1.9,0-2.8C91.8,28.4,92.2,28.3,92.6,28.3z"/>
				<path d="M107.5,26.8c0.1,1.4,0.2,5.1,0.2,6.4c0,1.2,0,5.3-0.2,7v0.1h3.8v-0.1c-0.1-1.3-0.2-3.7-0.2-5.5c0.2,0,0.7,0,0.7,0h0.5
					c5,0,7.5-1.3,7.5-4.1c0-3.2-3.4-3.9-6.3-4h-6V26.8z M112.2,28.3c1.8,0,3,0.3,3.6,1.1c0.3,0.3,0.4,0.8,0.4,1.2
					c0,2-2.2,2.4-4.1,2.4h-0.8c0,0-0.2,0-0.3,0c0-0.5,0-1.1,0-1.7c0-0.9,0-1.9,0-2.8C111.4,28.4,111.8,28.3,112.2,28.3z"/>
				<path d="M124.9,26.7L124.9,26.7L124.9,26.7c-0.8,2-5.4,12-6.1,13.5l-0.1,0.2h3.3v-0.1c0.3-0.9,0.6-2,1.1-3.1c0.1,0,2.7,0,2.7,0
					h2.2c0,0,0.4,0,0.5,0c0.6,1.5,1,2.6,1.2,3.1v0.1h3.8l-6-13.7h-0.1H124.9z M125.8,30.7c0.3,0.6,1.1,2.5,2,4.6c-0.1,0-0.3,0-0.3,0
					h-1.7c0,0-1.7,0-2,0C124.5,33.6,125.2,32,125.8,30.7z"/>
				<path d="M135.1,26.8c0.1,1.4,0.2,5.1,0.2,6.4c0,1.2,0,5.3-0.2,7v0.1h3.8v-0.1c-0.2-1.8-0.2-5.8-0.2-7c0-0.9,0-3.1,0.1-4.8
					c0.3,0,0.7-0.1,1-0.1c1.8,0,3,0.3,3.6,1.1c0.3,0.3,0.4,0.8,0.4,1.2c0,1.6-1.5,2.4-2.9,2.5c-0.5,0-0.8,0-0.8,0h-0.3l0.2,0.2
					c1.3,2,3.4,5.4,4.2,7.1v0.1h4.1l-0.1-0.2c-0.1-0.2-2.8-4.1-4-5.8c0,0,0-0.1-0.1-0.1c2.1-0.6,3.1-1.8,3.1-3.6
					c0-3.2-3.4-3.9-6.3-4h-6L135.1,26.8z"/>
				<path d="M153.8,26.7h-3.7v0.1c0.1,1.5,0.2,5.1,0.2,6.4c0,1.2,0,5.3-0.2,7v0.1h3.8v-0.1c-0.2-1.8-0.2-5.8-0.2-7
					c0-1.3,0.1-4.9,0.2-6.4v-0.1H153.8z"/>
				<path d="M157.4,26.8c0.1,1.4,0.2,5.1,0.2,6.4c0,1.2,0,5.3-0.2,7v0.1h6.4c3.1,0,6.4-1,6.4-3.8c0-1.7-1.3-3-3.6-3.7
					c1.7-0.5,2.9-1.7,2.9-3c0-2.3-2.6-3.1-5-3.2h-7L157.4,26.8z M162.3,28.2L162.3,28.2c2.7,0,3.7,0.6,3.7,2c0,0.4-0.1,0.7-0.4,1
					c-0.5,0.6-1.5,0.9-2.8,0.9h-0.1L162,34h0.7c1.5,0,2.7,0.4,3.4,1.2c0.3,0.4,0.5,0.8,0.5,1.2c0,1.5-1.3,2.3-3.9,2.3
					c-0.4,0-1.2,0-1.6,0c-0.1-2-0.1-4.7-0.1-5.5c0-1,0-3.1,0.1-4.9C161.3,28.2,161.8,28.2,162.3,28.2z"/>
				<path d="M179.5,26.7h-2.6v0.1c-0.8,2.1-5.6,12.6-6,13.4l-0.1,0.2h3.3v-0.1c0.3-0.9,0.7-2,1.1-3.1c0.1,0,2.7,0,2.7,0h2.2
					c0,0,0.4,0,0.5,0c0.6,1.5,1,2.6,1.2,3.2v0.1h3.8L179.5,26.7L179.5,26.7z M177.9,30.7c0.3,0.6,1.1,2.5,2,4.6c-0.1,0-0.3,0-0.3,0
					h-1.7c0,0-1.7,0-2,0C176.6,33.6,177.3,32,177.9,30.7z"/>
				<path d="M186.7,30.2c0,2.4,2.4,3.4,4.6,4.3c1.7,0.7,3.4,1.4,3.4,2.5c0,0.4-0.1,0.6-0.3,0.8c-0.4,0.5-1.2,0.7-2.5,0.6
					c-1.3-0.1-2.7-0.5-4.3-1.2l-0.7-0.3v0.5v2.5l0.4,0.1l0.3,0.1c0.8,0.2,2.3,0.6,3.9,0.6c4,0,6.4-1.6,6.4-4.3
					c0-2.5-2.5-3.5-4.7-4.3c-1.6-0.6-3.3-1.3-3.3-2.4c0-0.3,0-1.2,2.1-1.2c1.5,0,3.1,0.6,3.9,1l0.8,0.2v-0.5v-2.5l-0.8-0.1
					c-0.8-0.1-2.1-0.4-3.4-0.4C189.1,26.2,186.7,27.8,186.7,30.2z"/>
			</g>
		</g>
	</g>
</g>
</svg>
