<?xml version="1.0" encoding="utf-8"?>
<!-- Generator: Adobe Illustrator 22.0.1, SVG Export Plug-In . SVG Version: 6.00 Build 0)  -->
<svg version="1.1" id="Ebene_1" xmlns="http://www.w3.org/2000/svg" xmlns:xlink="http://www.w3.org/1999/xlink" x="0px" y="0px"
	 viewBox="0 0 1360 386.2" style="enable-background:new 0 0 1360 386.2;" xml:space="preserve">
<style type="text/css">
	.st0{fill:#8C8480;}
	.st1{fill:#FDC300;}
</style>
<path class="st0" d="M1111.8,65.2h30v88.7c6.1-13.9,13.9-26.7,23.2-38.5c9.4-11.8,20-21.9,31.8-30.3c11.8-8.4,24.8-14.7,38.8-19
	c14.1-4.3,28.8-6.2,44.3-5.8v33h-3.1c-17.9,0-35.1,3.4-51.4,10.1c-16.3,6.7-30.7,16.7-43.1,30c-12.4,13.3-22.3,29.6-29.7,48.9
	c-7.3,19.4-11,41.7-11,67v127.8h-30V65.2z"/>
<path class="st0" d="M158.4,384.1c-15.5,0-29.8-2-42.8-6.1c-13.1-4.1-24.8-9.6-35.2-16.5c-10.4-6.9-19.8-14.9-28.1-23.8
	c-8.4-9-15.8-18.3-22.3-28.1v67.3H0V0.1h30v134.5c6.5-10.2,14.1-20,22.6-29.4c8.6-9.4,18-17.5,28.4-24.5c10.4-6.9,22-12.5,34.9-16.8
	s27-6.4,42.5-6.4c18.7,0,37.2,3.7,55.3,11c18.1,7.3,34.3,17.9,48.6,31.8c14.3,13.9,25.8,30.9,34.6,51.1
	c8.8,20.2,13.1,42.9,13.1,68.2v1.2c0,25.3-4.4,48-13.1,68.2c-8.8,20.2-20.3,37.3-34.6,51.4c-14.3,14.1-30.5,24.9-48.6,32.4
	C195.6,380.4,177.1,384.1,158.4,384.1z M155.7,355.4c17.2,0,33.2-3.1,48.1-9.2c14.9-6.1,27.9-14.9,38.9-26.3
	c11-11.4,19.7-25.4,26-41.9c6.3-16.5,9.5-35.2,9.5-56v-1.2c0-20.4-3.3-38.9-9.8-55.6c-6.5-16.7-15.4-30.9-26.7-42.5
	c-11.2-11.6-24.3-20.6-39.2-26.9c-14.9-6.3-30.6-9.5-46.9-9.5c-16.4,0-32.2,3.3-47.5,9.8c-15.3,6.5-28.9,15.7-40.8,27.5
	c-11.9,11.8-21.4,25.9-28.5,42.2c-7.1,16.3-10.7,34.5-10.7,54.4v1.2c0,20,3.6,38.2,10.7,54.7c7.1,16.5,16.7,30.6,28.5,42.2
	c11.8,11.6,25.4,20.7,40.8,27.2C123.5,352.1,139.3,355.4,155.7,355.4z"/>
<path class="st0" d="M498.4,384.1c-14.7,0-29.2-2-43.4-6.1c-14.3-4.1-27.1-10.2-38.5-18.3c-11.4-8.1-20.7-18.3-27.8-30.6
	c-7.1-12.2-10.7-26.5-10.7-42.8v-1.2c0-16.3,3.4-30.8,10.1-43.4c6.7-12.6,16-23.2,27.8-31.8c11.8-8.6,26.1-15.1,42.8-19.6
	c16.7-4.5,35.3-6.7,55.7-6.7c22,0,41,1.2,56.9,3.7c15.9,2.4,31.4,5.7,46.5,9.8v-13.4c0-31.6-9.1-55.3-27.2-71.1
	c-18.1-15.8-43.3-23.7-75.5-23.7c-19.2,0-36.7,2.3-52.6,7c-15.9,4.7-31,10.7-45.2,18l-11-26.3c17.1-8.3,34.4-15,52-20
	c17.5-5,37.1-7.5,58.7-7.5c42.8,0,75.6,11.4,98.5,34.2c21.2,21.2,31.8,50.6,31.8,88.1v194.5h-29.4v-52c-5.3,7.3-11.7,14.6-19.3,21.7
	c-7.5,7.1-16.2,13.5-26,19c-9.8,5.5-20.9,10-33.3,13.5C526.6,382.4,513.1,384.1,498.4,384.1z M500.2,355.4c15.9,0,31-2.3,45.3-7
	c14.3-4.7,26.8-11.2,37.6-19.5c10.8-8.3,19.4-18.4,25.7-30.1c6.3-11.8,9.5-24.8,9.5-39v-35.3c-13.1-3.2-28.3-6.4-45.9-9.4
	c-17.5-3-37.5-4.6-59.9-4.6c-33,0-58.4,6.6-76.1,19.8c-17.7,13.2-26.6,30.7-26.6,52.7v1.2c0,11.4,2.4,21.4,7.3,30.1
	c4.9,8.7,11.5,16.1,19.9,22.2c8.4,6.1,18,10.8,29,14C477,353.8,488.4,355.4,500.2,355.4z"/>
<path class="st0" d="M984.4,64.9v185.3c0,32.2-8.6,58-25.7,77.4c-17.1,19.4-43.3,33.2-75.1,33.2c-1.6,0-3.1,0-4.7,0
	c-31.8,0-57.6-13.9-74.8-33.2c-17.1-19.4-25.7-45.1-25.7-77.4V64.9h-30v190.8c0,18.8,2.8,36,8.2,51.7c5.5,15.7,13.7,29.3,24.5,40.7
	c10.8,11.4,23.9,20.3,39.5,26.6c15.5,6.3,36.5,11.6,56.1,11.6c3.1,0,6.3,0,9.4,0c19.6,0,40.6-5.3,56.1-11.6
	c15.5-6.3,28.7-15.2,39.5-26.6c10.8-11.4,19-25,24.5-40.7c5.5-15.7,8.2-32.9,8.2-51.7V64.9H984.4z"/>
<path class="st1" d="M1317.2,294.2c11.7,0,22.1,4.5,30,12.3c8.1,7.9,12.8,18.5,12.8,30.6c0,12.1-4.7,22.8-12.8,30.8
	c-8,7.8-18.4,12.4-30,12.4c-11.6,0-22.1-4.5-30-12.4c-8.1-8-12.8-18.7-12.8-30.8c0-12,4.7-22.7,12.8-30.6
	C1295.1,298.7,1305.5,294.2,1317.2,294.2z"/>
</svg>
