<svg
  width="220"
  height="40"
  viewBox="0 0 220 40"
  version="1.1"
  xmlns="http://www.w3.org/2000/svg"
  xmlns:xlink="http://www.w3.org/1999/xlink"
>
  <g stroke="none" stroke-width="1" fill="none" fill-rule="evenodd">
    <polygon
      id="Fill-1"
      fill="#003060"
      points="136.75052 17.626 145.70532 8.4024 150.35612 8.4024 139.90892 18.8744 150.42572 31.5308 145.70532 31.5308 137.44452 21.2668 136.75052 21.9604 136.75052 31.5308 133.21012 31.5308 133.21012 8.4024 136.75052 8.4024"
    />
    <polygon
      id="Fill-2"
      fill="#003060"
      points="164.8642 11.73124 155.6318 11.73124 155.6318 17.59124 164.5866 17.59124 164.5866 20.92004 155.6318 20.92004 155.6318 28.20204 164.8642 28.20204 164.8642 31.53044 152.0914 31.53044 152.0914 8.40244 164.8642 8.40244"
    />
    <polygon
      id="Fill-3"
      fill="#003060"
      points="180.76068 11.73124 171.52828 11.73124 171.52828 17.59124 180.48268 17.59124 180.48268 20.92004 171.52828 20.92004 171.52828 28.20204 180.76068 28.20204 180.76068 31.53044 167.98788 31.53044 167.98788 8.40244 180.76068 8.40244"
    />
    <path
      d="M193.8806,13.5344 C193.6722,13.014 193.3594,12.5288 192.839,12.078 C192.1098,11.4884 191.3466,11.246 190.3402,11.246 C188.1882,11.246 187.0774,12.5288 187.0774,14.0196 C187.0774,14.7132 187.3202,15.9268 189.5766,16.8284 L191.9022,17.7648 C196.1714,19.4984 197.3514,21.9256 197.3514,24.5608 C197.3514,28.9648 194.2274,31.9816 189.889,31.9816 C187.2162,31.9816 185.6198,30.976 184.4394,29.6584 C183.1898,28.2712 182.635,26.7456 182.4958,25.1504 L186.0014,24.3876 C186.0014,25.532 186.4182,26.6072 186.973,27.3352 C187.6326,28.1676 188.6046,28.722 189.9926,28.722 C192.145,28.722 193.811,27.1616 193.811,24.8384 C193.811,22.4804 192.0062,21.5096 190.4786,20.8856 L188.2574,19.9492 C186.3482,19.1516 183.537,17.5568 183.537,14.0892 C183.537,10.9684 185.9666,7.986 190.305,7.986 C192.8046,7.986 194.2274,8.9224 194.9562,9.5464 C195.581,10.1012 196.2402,10.8992 196.7262,11.87 L193.8806,13.5344 Z"
      id="Fill-4"
      fill="#003060"
    />
    <path
      d="M209.98488,13.5344 C209.77648,13.014 209.46408,12.5288 208.94328,12.078 C208.21448,11.4884 207.45088,11.246 206.44448,11.246 C204.29248,11.246 203.18168,12.5288 203.18168,14.0196 C203.18168,14.7132 203.42488,15.9268 205.68048,16.8284 L208.00648,17.7648 C212.27568,19.4984 213.45568,21.9256 213.45568,24.5608 C213.45568,28.9648 210.33168,31.9816 205.99328,31.9816 C203.32048,31.9816 201.72408,30.976 200.54368,29.6584 C199.29448,28.2712 198.73928,26.7456 198.60048,25.1504 L202.10608,24.3876 C202.10608,25.532 202.52248,26.6072 203.07768,27.3352 C203.73728,28.1676 204.70928,28.722 206.09728,28.722 C208.24928,28.722 209.91528,27.1616 209.91528,24.8384 C209.91528,22.4804 208.11048,21.5096 206.58328,20.8856 L204.36168,19.9492 C202.45288,19.1516 199.64168,17.5568 199.64168,14.0892 C199.64168,10.9684 202.07128,7.986 206.40968,7.986 C208.90888,7.986 210.33168,8.9224 211.06048,9.5464 C211.68528,10.1012 212.34488,10.8992 212.83048,11.87 L209.98488,13.5344 Z"
      id="Fill-6"
      fill="#003060"
    />
    <path
      d="M58.57492,13.5344 C58.36692,13.014 58.05412,12.5288 57.53372,12.078 C56.80452,11.4884 56.04132,11.246 55.03452,11.246 C52.88252,11.246 51.77212,12.5288 51.77212,14.0196 C51.77212,14.7132 52.01492,15.9268 54.27092,16.8284 L56.59652,17.7648 C60.86572,19.4984 62.04572,21.9256 62.04572,24.5608 C62.04572,28.9648 58.92212,31.9816 54.58332,31.9816 C51.91092,31.9816 50.31452,30.976 49.13412,29.6584 C47.88452,28.2712 47.32932,26.7456 47.19052,25.1504 L50.69612,24.3876 C50.69612,25.532 51.11252,26.6072 51.66812,27.3352 C52.32732,28.1676 53.29932,28.722 54.68732,28.722 C56.83972,28.722 58.50572,27.1616 58.50572,24.8384 C58.50572,22.4804 56.70052,21.5096 55.17372,20.8856 L52.95212,19.9492 C51.04292,19.1516 48.23172,17.5568 48.23172,14.0892 C48.23172,10.9684 50.66132,7.986 54.99972,7.986 C57.49892,7.986 58.92212,8.9224 59.65092,9.5464 C60.27532,10.1012 60.93492,10.8992 61.42132,11.87 L58.57492,13.5344 Z"
      id="Fill-9"
      fill="#003060"
    />
    <path
      d="M69.7294,8.40236 C71.1526,8.40236 73.1306,8.54116 74.7966,9.65076 C76.7406,10.93356 77.6778,13.15276 77.6778,15.26796 C77.6778,16.62036 77.3302,18.70076 75.4214,20.33036 C73.5818,21.89116 71.4646,22.13356 69.7638,22.13356 L68.1674,22.13356 L68.1674,31.53116 L64.627,31.53116 L64.627,8.40236 L69.7294,8.40236 Z M68.1674,18.87436 L69.7638,18.87436 C72.8186,18.87436 74.2762,17.38316 74.2762,15.23316 C74.2762,13.95036 73.7554,11.66156 69.7294,11.66156 L68.1674,11.66156 L68.1674,18.87436 Z"
      id="Fill-11"
      fill="#003060"
    />
    <path
      d="M83.36944,8.40236 L83.36944,22.34196 C83.36944,23.58996 83.40384,25.11596 84.09824,26.32916 C84.79264,27.50836 86.35424,28.72236 88.40224,28.72236 C90.45024,28.72236 92.01184,27.50836 92.70624,26.32916 C93.40024,25.11596 93.43504,23.58996 93.43504,22.34196 L93.43504,8.40236 L96.97504,8.40236 L96.97504,23.27756 C96.97504,25.11596 96.59344,27.33516 94.82344,29.27676 C93.60824,30.59436 91.56104,31.98156 88.40224,31.98156 C85.24384,31.98156 83.19584,30.59436 81.98104,29.27676 C80.21104,27.33516 79.82904,25.11596 79.82904,23.27756 L79.82904,8.40236 L83.36944,8.40236 Z"
      id="Fill-13"
      fill="#003060"
    />
    <polygon
      id="Fill-15"
      fill="#003060"
      points="113.21848 11.73124 103.98568 11.73124 103.98568 17.59124 112.94088 17.59124 112.94088 20.92004 103.98568 20.92004 103.98568 28.20204 113.21848 28.20204 113.21848 31.53044 100.44568 31.53044 100.44568 8.40244 113.21848 8.40244"
    />
    <path
      d="M120.54192,8.40236 C123.35312,8.40236 125.15792,8.74876 126.65032,9.75476 C129.18432,11.45356 129.39232,14.19316 129.39232,15.19876 C129.39232,18.52716 127.34472,20.95476 124.25552,21.64836 L131.47512,31.53116 L127.20592,31.53116 L120.57632,22.06436 L119.95192,22.06436 L119.95192,31.53116 L116.41152,31.53116 L116.41152,8.40236 L120.54192,8.40236 Z M119.95192,19.01276 L121.06272,19.01276 C122.03432,19.01276 125.99112,18.90876 125.99112,15.23316 C125.99112,11.97396 122.90192,11.66156 121.16672,11.66156 L119.95192,11.66156 L119.95192,19.01276 Z"
      id="Fill-17"
      fill="#003060"
    />
    <polygon id="Fill-19" fill="#DE0000" points="0 40 40 40 40 0 0 0" />
    <polygon
      id="Fill-21"
      fill="#FFFFFF"
      points="27.28764 15.86348 27.28764 9.97108 24.32884 4.07068 21.37804 9.97108 21.37804 15.86348 22.84884 15.86348 22.84884 10.33508 24.32884 7.38748 25.80964 10.33508 25.80964 15.86348"
    />
    <polygon
      id="Fill-22"
      fill="#FFFFFF"
      points="8.0064 19.2432 31.9936 19.2432 31.9936 17.684 8.0064 17.684"
    />
    <path
      d="M27.30892,27.04316 C27.30892,24.45996 29.40532,22.36556 31.99372,22.36556 L31.99372,20.79156 C28.53652,20.79156 25.73372,23.59156 25.73372,27.04316 L25.74532,34.22396 C26.29932,34.91516 26.83372,35.65716 27.30892,36.41036 L27.30892,27.04316 Z"
      id="Fill-23"
      fill="#FFFFFF"
    />
    <path
      d="M23.12316,23.92148 C23.12316,22.19868 21.72436,20.79988 19.99516,20.79988 C18.26996,20.79988 16.87036,22.19868 16.87036,23.92148 L16.87276,27.21548 C17.40036,27.43308 17.92236,27.66948 18.43676,27.92588 L18.43076,23.92148 C18.43076,23.05788 19.13156,22.35748 19.99516,22.35748 C20.86116,22.35748 21.56116,23.05788 21.56116,23.92148 L21.56676,29.81268 C22.10476,30.19708 22.62716,30.60308 23.12836,31.02748 L23.12316,23.92148 Z"
      id="Fill-24"
      fill="#FFFFFF"
    />
    <path
      d="M14.2632,23.92148 C14.2632,22.19868 12.8636,20.79988 11.138,20.79988 C9.41,20.79988 8.0108,22.19868 8.0108,23.92148 L8.0064,25.48788 C8.5376,25.51108 9.054,25.55508 9.574,25.61188 L9.5716,23.92148 C9.5716,23.05788 10.2712,22.35748 11.138,22.35748 C12.0012,22.35748 12.704,23.05788 12.704,23.92148 L12.694,26.18228 C13.2264,26.31708 13.7492,26.46948 14.2632,26.63908 L14.2632,23.92148 Z"
      id="Fill-25"
      fill="#FFFFFF"
    />
  </g>
</svg>
